<svg width="52" height="59" viewBox="0 0 52 59" fill="none" xmlns="http://www.w3.org/2000/svg">
<g clip-path="url(#clip0_4_219)">
<path d="M15.2258 28.5484H34.2581H15.2258ZM15.2258 36.1613H22.8387H15.2258ZM24.7419 51.3871L17.129 43.7742H11.4194C10.4098 43.7742 9.44165 43.3732 8.7278 42.6593C8.01395 41.9455 7.61292 40.9773 7.61292 39.9677V24.7419C7.61292 23.7324 8.01395 22.7642 8.7278 22.0504C9.44165 21.3365 10.4098 20.9355 11.4194 20.9355H38.0645C39.0741 20.9355 40.0422 21.3365 40.7561 22.0504C41.4699 22.7642 41.871 23.7324 41.871 24.7419V39.9677C41.871 40.9773 41.4699 41.9455 40.7561 42.6593C40.0422 43.3732 39.0741 43.7742 38.0645 43.7742H32.3549L24.7419 51.3871Z" stroke="black" stroke-width="3.80645" stroke-linecap="round" stroke-linejoin="round"/>
</g>
<defs>
<clipPath id="clip0_4_219">
<rect width="51.3871" height="59" fill="white"/>
</clipPath>
</defs>
</svg>
