<svg width="28" height="28" viewBox="0 0 28 28" fill="none" xmlns="http://www.w3.org/2000/svg">
<path d="M9.33335 18.6667H7.00002C6.38118 18.6667 5.78769 18.4208 5.3501 17.9832C4.91252 17.5457 4.66669 16.9522 4.66669 16.3333V7C4.66669 6.38116 4.91252 5.78767 5.3501 5.35008C5.78769 4.9125 6.38118 4.66666 7.00002 4.66666H16.3334C16.9522 4.66666 17.5457 4.9125 17.9833 5.35008C18.4209 5.78767 18.6667 6.38116 18.6667 7V9.33333L9.33335 18.6667ZM11.6667 23.3333H21C21.6189 23.3333 22.2123 23.0875 22.6499 22.6499C23.0875 22.2123 23.3334 21.6188 23.3334 21V11.6667C23.3334 11.0478 23.0875 10.4543 22.6499 10.0167C22.2123 9.57916 21.6189 9.33333 21 9.33333H11.6667C11.0478 9.33333 10.4544 9.57916 10.0168 10.0167C9.57919 10.4543 9.33335 11.0478 9.33335 11.6667V21C9.33335 21.6188 9.57919 22.2123 10.0168 22.6499C10.4544 23.0875 11.0478 23.3333 11.6667 23.3333Z" stroke="white" stroke-width="2" stroke-linecap="round" stroke-linejoin="round"/>
</svg>
