<svg class="h-8 w-8 mr-2" viewBox="0 0 16 20" fill="none" xmlns="http://www.w3.org/2000/svg">
<path d="M5 14H5.01M5 3H3C2.46957 3 1.96086 3.21071 1.58579 3.58579C1.21071 3.96086 1 4.46957 1 5V17C1 17.5304 1.21071 18.0391 1.58579 18.4142C1.96086 18.7893 2.46957 19 3 19H13C13.5304 19 14.0391 18.7893 14.4142 18.4142C14.7893 18.0391 15 17.5304 15 17V5C15 4.46957 14.7893 3.96086 14.4142 3.58579C14.0391 3.21071 13.5304 3 13 3H11H5ZM5 3C5 3.53043 5.21071 4.03914 5.58579 4.41421C5.96086 4.78929 6.46957 5 7 5H9C9.53043 5 10.0391 4.78929 10.4142 4.41421C10.7893 4.03914 11 3.53043 11 3H5ZM5 3C5 2.46957 5.21071 1.96086 5.58579 1.58579C5.96086 1.21071 6.46957 1 7 1H9C9.53043 1 10.0391 1.21071 10.4142 1.58579C10.7893 1.96086 11 2.46957 11 3H5ZM8 10H11H8ZM8 14H11H8ZM5 10H5.01H5Z" stroke="#381BCB" stroke-width="2" stroke-linecap="round" stroke-linejoin="round"/>
</svg>


 <svg
              class="h-8 w-8 mr-2"
              
              viewBox="0 0 37 37"
              fill="none"
              xmlns="http://www.w3.org/2000/svg"
            >
              <path
                d="M8 15H18H8ZM8 19H12H8ZM13 27L9 23H6C5.46957 23 4.96086 22.7893 4.58579 22.4142C4.21071 22.0391 4 21.5304 4 21V13C4 12.4696 4.21071 11.9609 4.58579 11.5858C4.96086 11.2107 5.46957 11 6 11H20C20.5304 11 21.0391 11.2107 21.4142 11.5858C21.7893 11.9609 22 12.4696 22 13V21C22 21.5304 21.7893 22.0391 21.4142 22.4142C21.0391 22.7893 20.5304 23 20 23H17L13 27Z"
                stroke="#381BCB"
                stroke-width="2"
                stroke-linecap="round"
                stroke-linejoin="round"
              />
            </svg>